<svg width="24" height="24" viewBox="0 0 24 24" fill="none" xmlns="http://www.w3.org/2000/svg">
<path fill-rule="evenodd" clip-rule="evenodd" d="M12 21C13.1819 21 14.3522 20.7672 15.4442 20.3149C16.5361 19.8626 17.5282 19.1997 18.364 18.364C19.1997 17.5282 19.8626 16.5361 20.3149 15.4442C20.7672 14.3522 21 13.1819 21 12C21 10.8181 20.7672 9.64778 20.3149 8.55585C19.8626 7.46392 19.1997 6.47177 18.364 5.63604C17.5282 4.80031 16.5361 4.13738 15.4442 3.68508C14.3522 3.23279 13.1819 3 12 3C9.61305 3 7.32387 3.94821 5.63604 5.63604C3.94821 7.32387 3 9.61305 3 12C3 14.3869 3.94821 16.6761 5.63604 18.364C7.32387 20.0518 9.61305 21 12 21ZM10.293 9.707C10.1975 9.61475 10.1213 9.50441 10.0689 9.3824C10.0165 9.2604 9.9889 9.12918 9.98775 8.9964C9.9866 8.86362 10.0119 8.73194 10.0622 8.60905C10.1125 8.48615 10.1867 8.3745 10.2806 8.28061C10.3745 8.18671 10.4861 8.11246 10.609 8.06218C10.7319 8.0119 10.8636 7.9866 10.9964 7.98775C11.1292 7.9889 11.2604 8.01649 11.3824 8.0689C11.5044 8.12131 11.6148 8.19749 11.707 8.293L14.707 11.293C14.8945 11.4805 14.9998 11.7348 14.9998 12C14.9998 12.2652 14.8945 12.5195 14.707 12.707L11.707 15.707C11.5184 15.8892 11.2658 15.99 11.0036 15.9877C10.7414 15.9854 10.4906 15.8802 10.3052 15.6948C10.1198 15.5094 10.0146 15.2586 10.0123 14.9964C10.01 14.7342 10.1108 14.4816 10.293 14.293L12.586 12L10.293 9.707Z" fill="#5D75F4"/>
</svg>
