<svg width="24" height="23" viewBox="0 0 24 23" fill="none" xmlns="http://www.w3.org/2000/svg">
<path fill-rule="evenodd" clip-rule="evenodd" d="M12.744 0.197516C12.5174 0.0680804 12.261 0 12 0C11.739 0 11.4826 0.0680804 11.256 0.197516L0.756 6.19752C0.469006 6.3617 0.244301 6.61611 0.116821 6.92118C-0.0106595 7.22625 -0.0337701 7.5649 0.0510821 7.88446C0.135934 8.20403 0.323994 8.4866 0.586022 8.68826C0.84805 8.8899 1.16936 8.99933 1.5 8.99952V19.4995C1.10218 19.4995 0.720644 19.6576 0.43934 19.9389C0.158035 20.2202 0 20.6017 0 20.9995C0 21.3973 0.158035 21.7789 0.43934 22.0602C0.720644 22.3415 1.10218 22.4995 1.5 22.4995H22.5C22.8978 22.4995 23.2794 22.3415 23.5607 22.0602C23.842 21.7789 24 21.3973 24 20.9995C24 20.6017 23.842 20.2202 23.5607 19.9389C23.2794 19.6576 22.8978 19.4995 22.5 19.4995V8.99952C22.8306 8.99933 23.1519 8.8899 23.414 8.68826C23.676 8.4866 23.8641 8.20403 23.9489 7.88446C24.0338 7.5649 24.0107 7.22625 23.8832 6.92118C23.7557 6.61611 23.531 6.3617 23.244 6.19752L12.744 0.197516ZM6 10.4995C5.60218 10.4995 5.22064 10.6576 4.93934 10.9389C4.65804 11.2202 4.5 11.6017 4.5 11.9995V16.4995C4.5 16.8973 4.65804 17.2789 4.93934 17.5602C5.22064 17.8415 5.60218 17.9995 6 17.9995C6.39782 17.9995 6.77936 17.8415 7.06066 17.5602C7.34196 17.2789 7.5 16.8973 7.5 16.4995V11.9995C7.5 11.6017 7.34196 11.2202 7.06066 10.9389C6.77936 10.6576 6.39782 10.4995 6 10.4995ZM10.5 11.9995C10.5 11.6017 10.658 11.2202 10.9393 10.9389C11.2206 10.6576 11.6022 10.4995 12 10.4995C12.3978 10.4995 12.7794 10.6576 13.0607 10.9389C13.342 11.2202 13.5 11.6017 13.5 11.9995V16.4995C13.5 16.8973 13.342 17.2789 13.0607 17.5602C12.7794 17.8415 12.3978 17.9995 12 17.9995C11.6022 17.9995 11.2206 17.8415 10.9393 17.5602C10.658 17.2789 10.5 16.8973 10.5 16.4995V11.9995ZM18 10.4995C17.6022 10.4995 17.2206 10.6576 16.9393 10.9389C16.658 11.2202 16.5 11.6017 16.5 11.9995V16.4995C16.5 16.8973 16.658 17.2789 16.9393 17.5602C17.2206 17.8415 17.6022 17.9995 18 17.9995C18.3978 17.9995 18.7794 17.8415 19.0607 17.5602C19.342 17.2789 19.5 16.8973 19.5 16.4995V11.9995C19.5 11.6017 19.342 11.2202 19.0607 10.9389C18.7794 10.6576 18.3978 10.4995 18 10.4995Z" fill="#171717"/>
</svg>
