<svg width="24" height="24" viewBox="0 0 24 24" fill="none" xmlns="http://www.w3.org/2000/svg">
<path d="M19 1.25H5C4.27065 1.25 3.57118 1.53973 3.05546 2.05546C2.53973 2.57118 2.25 3.27065 2.25 4V20C2.25 20.7293 2.53973 21.4288 3.05546 21.9445C3.57118 22.4603 4.27065 22.75 5 22.75H19C19.7293 22.75 20.4288 22.4603 20.9445 21.9445C21.4603 21.4288 21.75 20.7293 21.75 20V4C21.75 3.27065 21.4603 2.57118 20.9445 2.05546C20.4288 1.53973 19.7293 1.25 19 1.25ZM10.53 16.78L8 19.28C7.85937 19.4205 7.66875 19.4993 7.47 19.4993C7.27125 19.4993 7.08063 19.4205 6.94 19.28L5.44 17.78C5.30752 17.6378 5.2354 17.4498 5.23882 17.2555C5.24225 17.0612 5.32097 16.8758 5.45838 16.7384C5.59579 16.601 5.78118 16.5223 5.97548 16.5188C6.16978 16.5154 6.35783 16.5875 6.5 16.72L7.5 17.72L9.5 15.72C9.56866 15.6463 9.65146 15.5872 9.74346 15.5462C9.83546 15.5052 9.93477 15.4832 10.0355 15.4814C10.1362 15.4796 10.2362 15.4982 10.3296 15.5359C10.423 15.5736 10.5078 15.6297 10.579 15.701C10.6503 15.7722 10.7064 15.857 10.7441 15.9504C10.7818 16.0438 10.8004 16.1438 10.7986 16.2445C10.7968 16.3452 10.7748 16.4445 10.7338 16.5365C10.6928 16.6285 10.6337 16.7113 10.56 16.78H10.53ZM10.53 11.28L8 13.78C7.85937 13.9205 7.66875 13.9993 7.47 13.9993C7.27125 13.9993 7.08063 13.9205 6.94 13.78L5.44 12.28C5.30752 12.1378 5.2354 11.9498 5.23882 11.7555C5.24225 11.5612 5.32097 11.3758 5.45838 11.2384C5.59579 11.101 5.78118 11.0223 5.97548 11.0188C6.16978 11.0154 6.35783 11.0875 6.5 11.22L7.5 12.22L9.5 10.22C9.64217 10.0875 9.83022 10.0154 10.0245 10.0188C10.2188 10.0223 10.4042 10.101 10.5416 10.2384C10.679 10.3758 10.7577 10.5612 10.7612 10.7555C10.7646 10.9498 10.6925 11.1378 10.56 11.28H10.53ZM10.53 5.78L8 8.28C7.86249 8.40299 7.68448 8.47098 7.5 8.47098C7.31552 8.47098 7.13751 8.40299 7 8.28L5.5 6.78C5.39613 6.63703 5.34608 6.46196 5.35868 6.28569C5.37129 6.10942 5.44573 5.94326 5.56889 5.81651C5.69204 5.68977 5.856 5.61059 6.03184 5.59293C6.20768 5.57527 6.3841 5.62027 6.53 5.72L7.53 6.72L9.53 4.72C9.67217 4.58752 9.86022 4.5154 10.0545 4.51883C10.2488 4.52225 10.4342 4.60097 10.5716 4.73838C10.709 4.87579 10.7877 5.06118 10.7912 5.25548C10.7946 5.44978 10.7225 5.63783 10.59 5.78H10.53ZM18 18.5H13C12.8011 18.5 12.6103 18.421 12.4697 18.2803C12.329 18.1397 12.25 17.9489 12.25 17.75C12.25 17.5511 12.329 17.3603 12.4697 17.2197C12.6103 17.079 12.8011 17 13 17H18C18.1989 17 18.3897 17.079 18.5303 17.2197C18.671 17.3603 18.75 17.5511 18.75 17.75C18.75 17.9489 18.671 18.1397 18.5303 18.2803C18.3897 18.421 18.1989 18.5 18 18.5ZM18 13H13C12.8011 13 12.6103 12.921 12.4697 12.7803C12.329 12.6397 12.25 12.4489 12.25 12.25C12.25 12.0511 12.329 11.8603 12.4697 11.7197C12.6103 11.579 12.8011 11.5 13 11.5H18C18.1989 11.5 18.3897 11.579 18.5303 11.7197C18.671 11.8603 18.75 12.0511 18.75 12.25C18.75 12.4489 18.671 12.6397 18.5303 12.7803C18.3897 12.921 18.1989 13 18 13ZM18 7.5H13C12.8011 7.5 12.6103 7.42098 12.4697 7.28033C12.329 7.13968 12.25 6.94891 12.25 6.75C12.25 6.55109 12.329 6.36032 12.4697 6.21967C12.6103 6.07902 12.8011 6 13 6H18C18.1989 6 18.3897 6.07902 18.5303 6.21967C18.671 6.36032 18.75 6.55109 18.75 6.75C18.75 6.94891 18.671 7.13968 18.5303 7.28033C18.3897 7.42098 18.1989 7.5 18 7.5Z" fill="#171717"/>
</svg>
