<svg width="32" height="32" viewBox="0 0 32 32" fill="none" xmlns="http://www.w3.org/2000/svg">
<path d="M25.3333 1.66667H6.66667C5.69421 1.66667 4.76158 2.05298 4.07394 2.74061C3.38631 3.42825 3 4.36088 3 5.33334V26.6667C3 27.6391 3.38631 28.5718 4.07394 29.2594C4.76158 29.947 5.69421 30.3333 6.66667 30.3333H25.3333C26.3058 30.3333 27.2384 29.947 27.9261 29.2594C28.6137 28.5718 29 27.6391 29 26.6667V5.33334C29 4.36088 28.6137 3.42825 27.9261 2.74061C27.2384 2.05298 26.3058 1.66667 25.3333 1.66667ZM14.04 22.3733L10.6667 25.7067C10.4792 25.8939 10.225 25.9991 9.96 25.9991C9.695 25.9991 9.44083 25.8939 9.25333 25.7067L7.25333 23.7067C7.07669 23.5171 6.98053 23.2664 6.9851 23.0073C6.98967 22.7482 7.09462 22.5011 7.27784 22.3178C7.46106 22.1346 7.70824 22.0297 7.9673 22.0251C8.22637 22.0205 8.4771 22.1167 8.66667 22.2933L10 23.6267L12.6667 20.96C12.7582 20.8618 12.8686 20.783 12.9913 20.7283C13.1139 20.6736 13.2464 20.6443 13.3806 20.6419C13.5149 20.6395 13.6483 20.6642 13.7728 20.7145C13.8973 20.7648 14.0104 20.8397 14.1054 20.9346C14.2003 21.0296 14.2752 21.1427 14.3255 21.2672C14.3758 21.3917 14.4005 21.5251 14.3981 21.6594C14.3958 21.7936 14.3664 21.9261 14.3117 22.0487C14.2571 22.1714 14.1783 22.2818 14.08 22.3733H14.04ZM14.04 15.04L10.6667 18.3733C10.4792 18.5606 10.225 18.6658 9.96 18.6658C9.695 18.6658 9.44083 18.5606 9.25333 18.3733L7.25333 16.3733C7.07669 16.1838 6.98053 15.933 6.9851 15.674C6.98967 15.4149 7.09462 15.1677 7.27784 14.9845C7.46106 14.8013 7.70824 14.6963 7.9673 14.6918C8.22637 14.6872 8.4771 14.7834 8.66667 14.96L10 16.2933L12.6667 13.6267C12.8562 13.45 13.107 13.3539 13.366 13.3584C13.6251 13.363 13.8723 13.468 14.0555 13.6512C14.2387 13.8344 14.3437 14.0816 14.3482 14.3406C14.3528 14.5997 14.2566 14.8504 14.08 15.04H14.04ZM14.04 7.70667L10.6667 11.04C10.4833 11.204 10.246 11.2946 10 11.2946C9.75402 11.2946 9.51667 11.204 9.33333 11.04L7.33333 9.04001C7.19484 8.84937 7.12811 8.61596 7.14491 8.38093C7.16172 8.14589 7.26098 7.92435 7.42518 7.75536C7.58939 7.58637 7.808 7.48079 8.04245 7.45724C8.2769 7.4337 8.51214 7.4937 8.70667 7.62667L10.04 8.96L12.7067 6.29334C12.8962 6.1167 13.147 6.02053 13.406 6.02511C13.6651 6.02968 13.9123 6.13463 14.0955 6.31784C14.2787 6.50106 14.3837 6.74824 14.3882 7.00731C14.3928 7.26638 14.2966 7.51711 14.12 7.70667H14.04ZM24 24.6667H17.3333C17.0681 24.6667 16.8138 24.5613 16.6262 24.3738C16.4387 24.1862 16.3333 23.9319 16.3333 23.6667C16.3333 23.4015 16.4387 23.1471 16.6262 22.9596C16.8138 22.772 17.0681 22.6667 17.3333 22.6667H24C24.2652 22.6667 24.5196 22.772 24.7071 22.9596C24.8946 23.1471 25 23.4015 25 23.6667C25 23.9319 24.8946 24.1862 24.7071 24.3738C24.5196 24.5613 24.2652 24.6667 24 24.6667ZM24 17.3333H17.3333C17.0681 17.3333 16.8138 17.228 16.6262 17.0404C16.4387 16.8529 16.3333 16.5986 16.3333 16.3333C16.3333 16.0681 16.4387 15.8138 16.6262 15.6262C16.8138 15.4387 17.0681 15.3333 17.3333 15.3333H24C24.2652 15.3333 24.5196 15.4387 24.7071 15.6262C24.8946 15.8138 25 16.0681 25 16.3333C25 16.5986 24.8946 16.8529 24.7071 17.0404C24.5196 17.228 24.2652 17.3333 24 17.3333ZM24 10H17.3333C17.0681 10 16.8138 9.89465 16.6262 9.70711C16.4387 9.51958 16.3333 9.26522 16.3333 9.00001C16.3333 8.73479 16.4387 8.48043 16.6262 8.2929C16.8138 8.10536 17.0681 8.00001 17.3333 8.00001H24C24.2652 8.00001 24.5196 8.10536 24.7071 8.2929C24.8946 8.48043 25 8.73479 25 9.00001C25 9.26522 24.8946 9.51958 24.7071 9.70711C24.5196 9.89465 24.2652 10 24 10Z" fill="white"/>
</svg>
