<svg width="32" height="30" viewBox="0 0 32 30" fill="none" xmlns="http://www.w3.org/2000/svg">
<path fill-rule="evenodd" clip-rule="evenodd" d="M16.992 0.263355C16.6899 0.0907739 16.3479 0 16 0C15.6521 0 15.3101 0.0907739 15.008 0.263355L1.008 8.26336C0.625342 8.48227 0.325734 8.82147 0.155761 9.22824C-0.0142126 9.635 -0.0450268 10.0865 0.0681095 10.5126C0.181246 10.9387 0.431993 11.3155 0.781363 11.5843C1.13073 11.8532 1.55915 11.9991 2 11.9994V25.9994C1.46957 25.9994 0.960859 26.2101 0.585786 26.5851C0.210714 26.9602 0 27.4689 0 27.9994C0 28.5298 0.210714 29.0385 0.585786 29.4136C0.960859 29.7886 1.46957 29.9994 2 29.9994H30C30.5304 29.9994 31.0391 29.7886 31.4142 29.4136C31.7893 29.0385 32 28.5298 32 27.9994C32 27.4689 31.7893 26.9602 31.4142 26.5851C31.0391 26.2101 30.5304 25.9994 30 25.9994V11.9994C30.4409 11.9991 30.8693 11.8532 31.2186 11.5843C31.568 11.3155 31.8188 10.9387 31.9319 10.5126C32.045 10.0865 32.0142 9.635 31.8442 9.22824C31.6743 8.82147 31.3747 8.48227 30.992 8.26336L16.992 0.263355ZM8 13.9994C7.46957 13.9994 6.96086 14.2101 6.58579 14.5851C6.21071 14.9602 6 15.4689 6 15.9994V21.9994C6 22.5298 6.21071 23.0385 6.58579 23.4136C6.96086 23.7886 7.46957 23.9994 8 23.9994C8.53043 23.9994 9.03914 23.7886 9.41421 23.4136C9.78929 23.0385 10 22.5298 10 21.9994V15.9994C10 15.4689 9.78929 14.9602 9.41421 14.5851C9.03914 14.2101 8.53043 13.9994 8 13.9994ZM14 15.9994C14 15.4689 14.2107 14.9602 14.5858 14.5851C14.9609 14.2101 15.4696 13.9994 16 13.9994C16.5304 13.9994 17.0391 14.2101 17.4142 14.5851C17.7893 14.9602 18 15.4689 18 15.9994V21.9994C18 22.5298 17.7893 23.0385 17.4142 23.4136C17.0391 23.7886 16.5304 23.9994 16 23.9994C15.4696 23.9994 14.9609 23.7886 14.5858 23.4136C14.2107 23.0385 14 22.5298 14 21.9994V15.9994ZM24 13.9994C23.4696 13.9994 22.9609 14.2101 22.5858 14.5851C22.2107 14.9602 22 15.4689 22 15.9994V21.9994C22 22.5298 22.2107 23.0385 22.5858 23.4136C22.9609 23.7886 23.4696 23.9994 24 23.9994C24.5304 23.9994 25.0391 23.7886 25.4142 23.4136C25.7893 23.0385 26 22.5298 26 21.9994V15.9994C26 15.4689 25.7893 14.9602 25.4142 14.5851C25.0391 14.2101 24.5304 13.9994 24 13.9994Z" fill="white"/>
</svg>
