<svg xmlns="http://www.w3.org/2000/svg" version="1.1" xmlns:xlink="http://www.w3.org/1999/xlink" width="512" height="512" x="0" y="0" viewBox="0 0 1000 1000" style="enable-background:new 0 0 512 512" xml:space="preserve" class=""><g><path d="M500 860a376.6 376.6 0 0 1-252.69-656.15 60 60 0 0 1 80.46 89 257 257 0 0 0-84.54 190.35C243.23 624.81 358.42 740 500 740s256.77-115.19 256.77-256.77a257 257 0 0 0-84.54-190.35 60 60 0 0 1 80.46-89A376.65 376.65 0 0 1 500 860z" fill="#171717" opacity="1" data-original="#000000"></path><path d="M500 461.93a60 60 0 0 1-60-60V200a60 60 0 0 1 120 0v201.93a60 60 0 0 1-60 60z" fill="#171717" opacity="1" data-original="#000000"></path></g></svg>