<svg width="48" height="48" viewBox="0 0 48 48" fill="none" xmlns="http://www.w3.org/2000/svg">
<path d="M5.52 41.52H42.48C43.8 41.52 44.88 40.44 44.88 39.12V8.88C44.88 7.56 43.8 6.48 42.48 6.48H5.52C4.2 6.48 3.12 7.56 3.12 8.88V39.12C3.12 40.44 4.2 41.52 5.52 41.52ZM36.0192 11.2272C38.3088 11.2272 40.1664 13.0848 40.1664 15.3744C40.1664 17.664 38.3088 19.5216 36.0192 19.5216C33.7296 19.5216 31.872 17.664 31.872 15.3744C31.872 13.0848 33.7296 11.2272 36.0192 11.2272ZM7.57919 34.776L18.2304 20.04C19.0032 18.9696 20.2704 18.9696 21.0432 20.04L27.3408 28.7472C28.1136 29.8176 29.3808 29.8176 30.1536 28.7472L31.8672 26.376C32.64 25.3056 33.9072 25.3056 34.68 26.376L40.752 34.776C41.5248 35.8464 41.0784 36.72 39.7584 36.72H8.5728C7.2528 36.72 6.8064 35.8464 7.57919 34.776Z" fill="white"/>
</svg>
