<svg width="24" height="24" viewBox="0 0 24 24" fill="none" xmlns="http://www.w3.org/2000/svg">
<path d="M2.76 20.76H21.24C21.9 20.76 22.44 20.22 22.44 19.56V4.44001C22.44 3.78001 21.9 3.24001 21.24 3.24001H2.76C2.1 3.24001 1.56 3.78001 1.56 4.44001V19.56C1.56 20.22 2.1 20.76 2.76 20.76ZM18.0096 5.61361C19.1544 5.61361 20.0832 6.54241 20.0832 7.68721C20.0832 8.83201 19.1544 9.76081 18.0096 9.76081C16.8648 9.76081 15.936 8.83201 15.936 7.68721C15.936 6.54241 16.8648 5.61361 18.0096 5.61361ZM3.7896 17.388L9.1152 10.02C9.5016 9.48481 10.1352 9.48481 10.5216 10.02L13.6704 14.3736C14.0568 14.9088 14.6904 14.9088 15.0768 14.3736L15.9336 13.188C16.32 12.6528 16.9536 12.6528 17.34 13.188L20.376 17.388C20.7624 17.9232 20.5392 18.36 19.8792 18.36H4.2864C3.6264 18.36 3.4032 17.9232 3.7896 17.388Z" fill="#171717"/>
</svg>
